{
    "asset": {
        "generator": "FBX2glTF v0.9.7",
        "version": "2.0"
    },
    "scene": 0,
    "buffers": [
        {
            "byteLength": 43980,
            "uri": "buffer.bin"
        }
    ],
    "bufferViews": [
        {
            "buffer": 0,
            "byteLength": 9324,
            "byteOffset": 0,
            "target": 34963
        },
        {
            "buffer": 0,
            "byteLength": 12996,
            "byteOffset": 9324,
            "target": 34962
        },
        {
            "buffer": 0,
            "byteLength": 12996,
            "byteOffset": 22320,
            "target": 34962
        },
        {
            "buffer": 0,
            "byteLength": 8664,
            "byteOffset": 35316,
            "target": 34962
        }
    ],
    "scenes": [
        {
            "name": "Root Scene",
            "nodes": [
                0
            ]
        }
    ],
    "accessors": [
        {
            "componentType": 5123,
            "type": "SCALAR",
            "count": 4662,
            "bufferView": 0,
            "byteOffset": 0
        },
        {
            "componentType": 5126,
            "type": "VEC3",
            "count": 1083,
            "bufferView": 1,
            "byteOffset": 0,
            "min": [
                -4.07940096920356e-05,
                -0.000402344128815457,
                -0.000795632426161319
            ],
            "max": [
                5.66022681596223e-05,
                0.000391720270272344,
                0.000788230041507632
            ]
        },
        {
            "componentType": 5126,
            "type": "VEC3",
            "count": 1083,
            "bufferView": 2,
            "byteOffset": 0
        },
        {
            "componentType": 5126,
            "type": "VEC2",
            "count": 1083,
            "bufferView": 3,
            "byteOffset": 0
        }
    ],
    "images": [
        {
            "name": "base_color_texture",
            "uri": "data:image/png;base64,"
        }
    ],
    "samplers": [
        {}
    ],
    "textures": [
        {
            "name": "base_color_texture",
            "sampler": 0,
            "source": 0
        }
    ],
    "materials": [
        {
            "name": "Material",
            "alphaMode": "OPAQUE",
            "extras": {
                "fromFBX": {
                    "shadingModel": "Phong",
                    "isTruePBR": false
                }
            },
            "pbrMetallicRoughness": {
                "baseColorTexture": {
                    "index": 0,
                    "texCoord": 0
                },
                "baseColorFactor": [
                    1.0,
                    1.0,
                    1.0,
                    1.0
                ],
                "metallicFactor": 0.400000005960464,
                "roughnessFactor": 0.198029518127441
            }
        }
    ],
    "meshes": [
        {
            "name": "PhoneCase_IPhone12",
            "primitives": [
                {
                    "material": 0,
                    "mode": 4,
                    "attributes": {
                        "NORMAL": 2,
                        "POSITION": 1,
                        "TEXCOORD_0": 3
                    },
                    "indices": 0
                }
            ]
        }
    ],
    "cameras": [
        {
            "name": "",
            "type": "perspective",
            "perspective": {
                "znear": 10.0,
                "zfar": 10000.0,
                "aspectRatio": 1.5,
                "yfov": 0.471089959144592
            }
        }
    ],
    "nodes": [
        {
            "name": "RootNode",
            "translation": [
                0.0,
                0.0,
                0.0
            ],
            "rotation": [
                0.0,
                0.0,
                0.0,
                1.0
            ],
            "scale": [
                1.0,
                1.0,
                1.0
            ],
            "children": [
                1
            ]
        },
        {
            "name": "PhoneCase_IPhone12.002",
            "translation": [
                0.0,
                0.0,
                0.0
            ],
            "rotation": [
                -0.707106828689575,
                0.0,
                0.0,
                0.707106709480286
            ],
            "scale": [
                100.0,
                100.0,
                100.0
            ],
            "children": [
                2,
                3,
                4
            ]
        },
        {
            "name": "PhoneCase_IPhone12",
            "translation": [
                0.0,
                0.0,
                0.0
            ],
            "rotation": [
                -1.32348898008484e-23,
                -0.0,
                0.0,
                1.0
            ],
            "scale": [
                1.0,
                1.0,
                1.0
            ],
            "mesh": 0
        },
        {
            "name": "Light",
            "translation": [
                0.00720653170719743,
                -6.6174447525128e-26,
                0.00242565269581974
            ],
            "rotation": [
                0.699367046356201,
                0.699367046356201,
                0.104334749281406,
                0.104334764182568
            ],
            "scale": [
                1.0,
                1.0,
                1.0
            ]
        },
        {
            "name": "Camera",
            "translation": [
                0.00253561069257557,
                0.00102169439196587,
                9.94604270090349e-05
            ],
            "rotation": [
                0.388423353433609,
                0.575280666351318,
                0.596591591835022,
                0.402812361717224
            ],
            "scale": [
                1.0,
                0.999999940395355,
                1.0
            ],
            "camera": 0
        }
    ]
}